<svg width="21" height="20" viewBox="0 0 21 20" fill="none" xmlns="http://www.w3.org/2000/svg">
<g id="ph:link-bold">
<path id="Vector" d="M11.154 14.6509C11.2414 14.738 11.3107 14.8415 11.3581 14.9554C11.4054 15.0694 11.4297 15.1916 11.4297 15.3149C11.4297 15.4383 11.4054 15.5605 11.3581 15.6745C11.3107 15.7884 11.2414 15.8919 11.154 15.979L10.6899 16.4431C9.81057 17.3224 8.61791 17.8164 7.3743 17.8164C6.1307 17.8164 4.93804 17.3224 4.05868 16.4431C3.17932 15.5637 2.6853 14.371 2.6853 13.1274C2.6853 11.8838 3.17932 10.6912 4.05868 9.81181L5.94305 7.92822C6.78796 7.08122 7.92476 6.58933 9.12057 6.55331C10.3164 6.51729 11.4807 6.93986 12.3751 7.73447C12.4674 7.81655 12.5427 7.91601 12.5966 8.02717C12.6505 8.13833 12.682 8.25902 12.6892 8.38235C12.6965 8.50568 12.6794 8.62923 12.6389 8.74595C12.5984 8.86266 12.5353 8.97026 12.4532 9.06259C12.3711 9.15493 12.2717 9.2302 12.1605 9.28409C12.0493 9.33799 11.9287 9.36947 11.8053 9.37672C11.682 9.38398 11.5585 9.36687 11.4417 9.32638C11.325 9.28588 11.2174 9.2228 11.1251 9.14072C10.5888 8.66441 9.89074 8.41102 9.17377 8.43237C8.4568 8.45371 7.77508 8.74819 7.26805 9.25556L5.38524 11.1368C4.85771 11.6643 4.56135 12.3798 4.56135 13.1259C4.56135 13.8719 4.85771 14.5874 5.38524 15.1149C5.91277 15.6425 6.62826 15.9388 7.3743 15.9388C8.12035 15.9388 8.83583 15.6425 9.36337 15.1149L9.82743 14.6509C9.9145 14.5637 10.0179 14.4946 10.1317 14.4474C10.2455 14.4002 10.3675 14.3759 10.4907 14.3759C10.6139 14.3759 10.7359 14.4002 10.8497 14.4474C10.9635 14.4946 11.0669 14.5637 11.154 14.6509ZM16.9415 3.55713C16.0614 2.67912 14.869 2.18604 13.6259 2.18604C12.3827 2.18604 11.1903 2.67912 10.3102 3.55713L9.84618 4.02119C9.67006 4.19731 9.57112 4.43618 9.57112 4.68525C9.57112 4.93432 9.67006 5.17319 9.84618 5.34931C10.0223 5.52543 10.2612 5.62438 10.5102 5.62438C10.7593 5.62438 10.9982 5.52543 11.1743 5.34931L11.6384 4.88525C12.1659 4.35772 12.8814 4.06135 13.6274 4.06135C14.3735 4.06135 15.089 4.35772 15.6165 4.88525C16.144 5.41278 16.4404 6.12827 16.4404 6.87431C16.4404 7.62036 16.144 8.33584 15.6165 8.86338L13.7329 10.7478C13.2254 11.2549 12.5433 11.549 11.8262 11.5697C11.109 11.5905 10.4111 11.3364 9.87509 10.8595C9.78275 10.7774 9.67515 10.7143 9.55844 10.6738C9.44172 10.6333 9.31817 10.6162 9.19484 10.6235C9.07152 10.6307 8.95082 10.6622 8.83966 10.7161C8.7285 10.77 8.62904 10.8453 8.54696 10.9376C8.46488 11.0299 8.4018 11.1375 8.36131 11.2542C8.32081 11.371 8.30371 11.4945 8.31096 11.6178C8.31821 11.7412 8.34969 11.8619 8.40359 11.973C8.45748 12.0842 8.53275 12.1836 8.62509 12.2657C9.51882 13.0601 10.6824 13.483 11.8776 13.4477C13.0729 13.4124 14.2095 12.9217 15.0548 12.0759L16.9391 10.1923C17.8182 9.31242 18.3121 8.1197 18.3126 6.87597C18.313 5.63224 17.8199 4.43917 16.9415 3.55869V3.55713Z" fill="#737373"/>
</g>
</svg>
